<svg width="26" height="25" viewBox="0 0 26 25" fill="none" xmlns="http://www.w3.org/2000/svg">
<path d="M17.5161 0.396194L24.0047 7.61139C26.6651 10.5689 26.6651 15.3232 24.0047 18.2807L18.3183 24.6031C17.8461 25.1276 17.0744 25.1332 16.5971 24.6142C16.1199 24.0953 16.1148 23.2471 16.587 22.7226L22.2683 16.4002C23.9895 14.4862 23.9895 11.4115 22.2683 9.49749L15.7848 2.2823C15.3126 1.75776 15.3177 0.909572 15.795 0.390614C16.2722 -0.128345 17.0439 -0.122764 17.5161 0.401774V0.396194ZM0 11.0209V2.67849C0 1.19974 1.09158 0 2.43702 0H10.0273C10.8905 0 11.718 0.373873 12.3273 1.0435L20.8569 10.4182C22.1261 11.8133 22.1261 14.0733 20.8569 15.4683L14.0789 22.9179C12.8096 24.3129 10.7534 24.3129 9.48409 22.9179L0.954501 13.5431C0.340168 12.8735 0 11.9695 0 11.0209ZM7.31107 6.24982C7.31107 5.77623 7.1399 5.32204 6.83521 4.98717C6.53053 4.65229 6.11728 4.46416 5.68639 4.46416C5.2555 4.46416 4.84225 4.65229 4.53757 4.98717C4.23288 5.32204 4.06171 5.77623 4.06171 6.24982C4.06171 6.72341 4.23288 7.1776 4.53757 7.51247C4.84225 7.84735 5.2555 8.03548 5.68639 8.03548C6.11728 8.03548 6.53053 7.84735 6.83521 7.51247C7.1399 7.1776 7.31107 6.72341 7.31107 6.24982Z" fill="#1814F3"/>
</svg>
