<svg width="25" height="25" viewBox="0 0 25 25" fill="none" xmlns="http://www.w3.org/2000/svg">
<path d="M24.5422 13.7612C25.1526 13.0636 25.1526 11.9308 24.5422 11.2333L18.2919 4.0904C17.6815 3.39286 16.6903 3.39286 16.0799 4.0904C15.4695 4.78795 15.4695 5.92076 16.0799 6.6183L19.664 10.7143H9.37546C8.51116 10.7143 7.81288 11.5123 7.81288 12.5C7.81288 13.4877 8.51116 14.2857 9.37546 14.2857H19.664L16.0799 18.3817C15.4695 19.0792 15.4695 20.2121 16.0799 20.9096C16.6903 21.6071 17.6815 21.6071 18.2919 20.9096L24.5422 13.7667V13.7612ZM7.81288 3.57143C8.67718 3.57143 9.37546 2.77344 9.37546 1.78571C9.37546 0.797991 8.67718 0 7.81288 0H4.68773C2.09971 0 0 2.39955 0 5.35714V19.6429C0 22.6004 2.09971 25 4.68773 25H7.81288C8.67718 25 9.37546 24.202 9.37546 23.2143C9.37546 22.2266 8.67718 21.4286 7.81288 21.4286H4.68773C3.82343 21.4286 3.12515 20.6306 3.12515 19.6429V5.35714C3.12515 4.36942 3.82343 3.57143 4.68773 3.57143H7.81288Z" fill="black"/>
</svg>
