<svg width="25" height="25" viewBox="0 0 25 25" fill="none" xmlns="http://www.w3.org/2000/svg">
<path d="M0 1.17188C0 0.522461 0.468382 0 1.05058 0H3.04229C4.00532 0 4.85891 0.625 5.25726 1.5625H23.2484C24.3996 1.5625 25.2401 2.7832 24.938 4.02344L23.1433 11.46C22.7712 12.9932 21.5237 14.0625 20.101 14.0625H7.47222L7.7086 15.4541C7.8049 16.0059 8.23826 16.4062 8.74166 16.4062H21.3617C21.9439 16.4062 22.4123 16.9287 22.4123 17.5781C22.4123 18.2275 21.9439 18.75 21.3617 18.75H8.74166C7.22708 18.75 5.927 17.5488 5.64684 15.8936L3.38811 2.66113C3.35746 2.47559 3.21301 2.34375 3.04229 2.34375H1.05058C0.468382 2.34375 0 1.82129 0 1.17188ZM5.60307 22.6562C5.60307 22.3485 5.65742 22.0437 5.76301 21.7593C5.8686 21.475 6.02337 21.2166 6.21848 20.999C6.41359 20.7813 6.64522 20.6087 6.90015 20.4909C7.15507 20.3731 7.42829 20.3125 7.70422 20.3125C7.98015 20.3125 8.25337 20.3731 8.5083 20.4909C8.76322 20.6087 8.99485 20.7813 9.18996 20.999C9.38507 21.2166 9.53984 21.475 9.64543 21.7593C9.75102 22.0437 9.80537 22.3485 9.80537 22.6562C9.80537 22.964 9.75102 23.2688 9.64543 23.5532C9.53984 23.8375 9.38507 24.0959 9.18996 24.3135C8.99485 24.5312 8.76322 24.7038 8.5083 24.8216C8.25337 24.9394 7.98015 25 7.70422 25C7.42829 25 7.15507 24.9394 6.90015 24.8216C6.64522 24.7038 6.41359 24.5312 6.21848 24.3135C6.02337 24.0959 5.8686 23.8375 5.76301 23.5532C5.65742 23.2688 5.60307 22.964 5.60307 22.6562ZM20.3111 20.3125C20.8684 20.3125 21.4028 20.5594 21.7969 20.999C22.1909 21.4385 22.4123 22.0346 22.4123 22.6562C22.4123 23.2779 22.1909 23.874 21.7969 24.3135C21.4028 24.7531 20.8684 25 20.3111 25C19.7539 25 19.2194 24.7531 18.8254 24.3135C18.4313 23.874 18.21 23.2779 18.21 22.6562C18.21 22.0346 18.4313 21.4385 18.8254 20.999C19.2194 20.5594 19.7539 20.3125 20.3111 20.3125Z" fill="black"/>
</svg>
