<svg width="33" height="32" viewBox="0 0 33 32" fill="none" xmlns="http://www.w3.org/2000/svg">
<path d="M16.6604 3.03125L21.1521 4.8875L16.5 6.8375L11.8479 4.8875L16.3396 3.03125C16.4427 2.9875 16.5573 2.9875 16.6661 3.03125H16.6604ZM7.79167 5.775V12.7875C7.71719 12.8125 7.64271 12.8375 7.56823 12.8687L2.06823 15.1437C0.825 15.6562 0 16.9625 0 18.4125V25.8625C0 27.25 0.750521 28.5062 1.91927 29.0687L7.41927 31.7062C8.24427 32.1 9.17813 32.1 10.0031 31.7062L16.5 28.5875L23.0026 31.7062C23.8276 32.1 24.7615 32.1 25.5865 31.7062L31.0865 29.0687C32.2495 28.5125 33.0057 27.25 33.0057 25.8625V18.4187C33.0057 16.9625 32.1807 15.6625 30.9375 15.1437L25.4375 12.8687C25.363 12.8375 25.2885 12.8125 25.2141 12.7875V5.775C25.2141 4.31875 24.3891 3.01875 23.1458 2.5L17.6458 0.225C16.9125 -0.075 16.1047 -0.075 15.3714 0.225L9.87135 2.5C8.61667 3.01875 7.79167 4.325 7.79167 5.775ZM22.4583 13.1562L17.7375 15.1062V9.53125L22.4583 7.55625V13.1562ZM8.86875 15.675L13.3604 17.5312L8.70833 19.475L4.05625 17.5312L8.54792 15.675C8.65104 15.6312 8.76562 15.6312 8.87448 15.675H8.86875ZM9.94583 28.45V22.1687L14.6667 20.1937V26.1875L9.94583 28.45ZM24.1313 15.675C24.2344 15.6312 24.349 15.6312 24.4578 15.675L28.9495 17.5312L24.2917 19.475L19.6396 17.5312L24.1313 15.675ZM29.975 26.3187L25.5292 28.45V22.1687L30.25 20.1937V25.8625C30.25 26.0625 30.1411 26.2375 29.975 26.3187Z" fill="black"/>
</svg>
