<svg width="25" height="25" viewBox="0 0 25 25" fill="none" xmlns="http://www.w3.org/2000/svg">
<path d="M9.30176 3.35938L11.001 6.25H10.9375H7.42188C6.34277 6.25 5.46875 5.37598 5.46875 4.29688C5.46875 3.21777 6.34277 2.34375 7.42188 2.34375H7.5293C8.25684 2.34375 8.93555 2.72949 9.30176 3.35938ZM3.125 4.29688C3.125 5 3.2959 5.66406 3.59375 6.25H1.5625C0.698242 6.25 0 6.94824 0 7.8125V10.9375C0 11.8018 0.698242 12.5 1.5625 12.5H23.4375C24.3018 12.5 25 11.8018 25 10.9375V7.8125C25 6.94824 24.3018 6.25 23.4375 6.25H21.4062C21.7041 5.66406 21.875 5 21.875 4.29688C21.875 1.92383 19.9512 0 17.5781 0H17.4707C15.9131 0 14.4678 0.825195 13.6768 2.16797L12.5 4.1748L11.3232 2.17285C10.5322 0.825195 9.08691 0 7.5293 0H7.42188C5.04883 0 3.125 1.92383 3.125 4.29688ZM19.5312 4.29688C19.5312 5.37598 18.6572 6.25 17.5781 6.25H14.0625H13.999L15.6982 3.35938C16.0693 2.72949 16.7432 2.34375 17.4707 2.34375H17.5781C18.6572 2.34375 19.5312 3.21777 19.5312 4.29688ZM1.5625 14.0625V22.6562C1.5625 23.9502 2.6123 25 3.90625 25H10.9375V14.0625H1.5625ZM14.0625 25H21.0938C22.3877 25 23.4375 23.9502 23.4375 22.6562V14.0625H14.0625V25Z" fill="#1814F3"/>
</svg>
