<svg width="25" height="25" viewBox="0 0 25 25" fill="none" xmlns="http://www.w3.org/2000/svg">
<path d="M24.4271 5.06836L21.7943 0.639648C21.56 0.244141 21.1419 0 20.6962 0H4.30204C3.85634 0 3.43822 0.244141 3.20389 0.639648L0.566491 5.06836C-0.793561 7.35352 0.410268 10.5322 2.95117 10.8984C3.13497 10.9229 3.32335 10.9375 3.50714 10.9375C4.70638 10.9375 5.77236 10.3809 6.50293 9.52148C7.2335 10.3809 8.29948 10.9375 9.49872 10.9375C10.698 10.9375 11.7639 10.3809 12.4945 9.52148C13.2251 10.3809 14.2911 10.9375 15.4903 10.9375C16.6941 10.9375 17.7555 10.3809 18.4861 9.52148C19.2212 10.3809 20.2826 10.9375 21.4819 10.9375C21.6703 10.9375 21.854 10.9229 22.0378 10.8984C24.5879 10.5371 25.7964 7.3584 24.4317 5.06836H24.4271ZM22.2262 12.4463C22.2262 12.4463 22.2262 12.4463 22.2216 12.4463C21.9781 12.4805 21.73 12.5 21.4773 12.5C20.9075 12.5 20.3608 12.4072 19.8507 12.2412V18.75H5.14747V12.2363C4.63286 12.4072 4.08149 12.5 3.51174 12.5C3.25902 12.5 3.00631 12.4805 2.76279 12.4463H2.75819C2.56981 12.417 2.38602 12.3828 2.20682 12.334V18.75V21.875C2.20682 23.5986 3.52552 25 5.14747 25H19.8507C21.4727 25 22.7914 23.5986 22.7914 21.875V18.75V12.334C22.6076 12.3828 22.4238 12.4219 22.2262 12.4463Z" fill="black"/>
</svg>
